<svg xmlns="http://www.w3.org/2000/svg" viewBox="0 0 256 256">
  <defs>
    <linearGradient id="ring" x1="0" y1="0" x2="1" y2="1">
      <stop stop-color="#ff3c91"/>
      <stop offset="0.48" stop-color="#f7a3d2"/>
      <stop offset="1" stop-color="#19bfff"/>
    </linearGradient>
    <linearGradient id="metal" x1="0" y1="0" x2="0" y2="1">
      <stop stop-color="#f1f5fb"/>
      <stop offset="0.4" stop-color="#7f8998"/>
      <stop offset="1" stop-color="#202936"/>
    </linearGradient>
    <filter id="glow" x="-30%" y="-30%" width="160%" height="160%">
      <feGaussianBlur stdDeviation="4" result="blur"/>
      <feMerge>
        <feMergeNode in="blur"/>
        <feMergeNode in="SourceGraphic"/>
      </feMerge>
    </filter>
  </defs>
  <rect width="256" height="256" fill="#07090e"/>
  <circle cx="128" cy="128" r="114" fill="#101720" stroke="url(#ring)" stroke-width="7" filter="url(#glow)"/>
  <path d="M181 68H93c-24 0-39 13-39 33 0 14 8 24 23 30l58 23c6 2 9 5 9 9 0 5-4 8-12 8H65" fill="none" stroke="#ff4596" stroke-width="15" stroke-linecap="square" stroke-linejoin="miter" filter="url(#glow)"/>
  <path d="M184 68H96c-24 0-39 13-39 33 0 14 8 24 23 30l58 23c6 2 9 5 9 9 0 5-4 8-12 8H68" fill="none" stroke="url(#metal)" stroke-width="9" stroke-linecap="square" stroke-linejoin="miter"/>
  <path d="M184 188H105c-18 0-31-8-39-20" fill="none" stroke="#20c5ff" stroke-width="7" stroke-linecap="square" filter="url(#glow)"/>
</svg>